Coordinates
version=1
nRows=43
nColumns=12
inDegrees=yes

Units are S.I. units (second, meters, Newtons, ...)
Angles are in degrees

endheader
time	SC_y	SC_z	SC_x	AC_y	AC_z	AC_x	GH_y	GH_z	GH_yy	EL_x	PS_y
       0.0              -33.22          17.91          25.48          56.61          -0.97         -14.49         -6.352          64.43         -123.1          112.9          62.39
   0.04511              -33.22          17.91          25.49          56.61        -0.9715         -14.49         -6.363          64.42         -123.0          112.9          62.38
   0.09022              -33.22          17.91          25.49           56.6        -0.9731         -14.48         -6.376          64.41         -123.0          112.9          62.38
    0.1353              -33.22          17.91           25.5           56.6        -0.9748         -14.47         -6.389           64.4         -123.0          112.9          62.37
    0.1804              -33.21          17.91           25.5           56.6        -0.9765         -14.47         -6.403          64.39         -123.0          112.9          62.37
    0.2256              -33.21          17.91          25.51           56.6        -0.9784         -14.46         -6.418          64.38         -123.0          112.9          62.36
    0.2707              -33.21           17.9          25.51          56.59        -0.9805         -14.46         -6.434          64.36         -122.9          112.9          62.36
    0.3158               -33.2           17.9          25.52          56.59        -0.9827         -14.45         -6.451          64.35         -122.9          112.9          62.35
    0.3609               -33.2           17.9          25.52          56.59         -0.985         -14.44          -6.47          64.34         -122.9          112.9          62.35
     0.406              -33.19           17.9          25.53          56.59        -0.9875         -14.43         -6.489          64.32         -122.8          112.9          62.34
    0.4511              -33.19           17.9          25.54          56.58        -0.9902         -14.42          -6.51          64.31         -122.8          112.8          62.33
    0.4962              -33.18           17.9          25.55          56.58        -0.9931         -14.41         -6.533          64.29         -122.8          112.8          62.32
    0.5413              -33.18           17.9          25.56          56.58        -0.9962          -14.4         -6.558          64.27         -122.7          112.8          62.31
    0.5864              -33.17          17.89          25.57          56.57        -0.9996         -14.39         -6.584          64.25         -122.7          112.8           62.3
    0.6316              -33.17          17.89          25.58          56.57         -1.003         -14.38         -6.613          64.23         -122.6          112.8          62.29
    0.6767              -33.16          17.89          25.59          56.56         -1.007         -14.37         -6.644          64.21         -122.6          112.8          62.28
    0.7218              -33.15          17.89           25.6          56.56         -1.011         -14.35         -6.678          64.18         -122.5          112.7          62.27
    0.7669              -33.15          17.88          25.61          56.55         -1.016         -14.34         -6.715          64.15         -122.5          112.7          62.26
     0.812              -33.14          17.88          25.63          56.55         -1.021         -14.32         -6.755          64.12         -122.4          112.7          62.24
    0.8571              -33.13          17.88          25.64          56.54         -1.027          -14.3         -6.799          64.09         -122.3          112.7          62.23
    0.9022              -33.12          17.87          25.66          56.53         -1.033         -14.28         -6.847          64.06         -122.2          112.6          62.21
    0.9473              -33.11          17.87          25.68          56.52          -1.04         -14.26         -6.901          64.02         -122.2          112.6          62.19
    0.9924              -33.09          17.87           25.7          56.51         -1.047         -14.23          -6.96          63.97         -122.1          112.6          62.17
     1.038              -33.08          17.86          25.72           56.5         -1.055          -14.2         -7.025          63.92         -122.0          112.5          62.15
     1.083              -33.06          17.86          25.75          56.49         -1.065         -14.17         -7.097          63.87         -121.8          112.5          62.12
     1.128              -33.05          17.85          25.78          56.48         -1.075         -14.14         -7.178          63.81         -121.7          112.4          62.09
     1.173              -33.03          17.84          25.81          56.47         -1.086          -14.1         -7.268          63.74         -121.5          112.4          62.06
     1.218               -33.0          17.83          25.85          56.45         -1.099         -14.06          -7.37          63.66         -121.4          112.3          62.02
     1.263              -32.98          17.83          25.89          56.43         -1.114         -14.01         -7.485          63.58         -121.2          112.2          61.98
     1.308              -32.95          17.82          25.93          56.41         -1.131         -13.95         -7.616          63.48         -121.0          112.1          61.93
     1.353              -32.92          17.81          25.99          56.39         -1.149         -13.89         -7.765          63.37         -120.7          112.0          61.88
     1.398              -32.88          17.79          26.05          56.36         -1.171         -13.82         -7.936          63.24         -120.4          111.9          61.82
     1.444              -32.84          17.78          26.12          56.33         -1.196         -13.73         -8.134          63.09         -120.1          111.8          61.75
     1.489              -32.79          17.76           26.2           56.3         -1.225         -13.63         -8.364          62.92         -119.7          111.7          61.67
     1.534              -32.73          17.74           26.3          56.26          -1.26         -13.52         -8.632          62.72         -119.3          111.5          61.57
     1.579              -32.67          17.72          26.41          56.21           -1.3         -13.39         -8.949          62.49         -118.8          111.3          61.46
     1.624              -32.58          17.69          26.55          56.15         -1.348         -13.23         -9.325          62.21         -118.1          111.0          61.32
     1.669              -32.49          17.66          26.71          56.08         -1.405         -13.03         -9.776          61.87         -117.4          110.7          61.16
     1.714              -32.37          17.61           26.9           56.0         -1.474          -12.8         -10.32          61.46         -116.5          110.4          60.97
     1.759              -32.23          17.57          27.14           55.9         -1.559         -12.52         -10.99          60.96         -115.4          110.0          60.73
     1.804              -32.05           17.5          27.43          55.77         -1.663         -12.17         -11.81          60.35         -114.0          109.4          60.43
      1.85              -31.83          17.43           27.8          55.61         -1.794         -11.73         -12.84          59.58         -112.3          108.8          60.06
     1.895              -31.55          17.33          28.26          55.41         -1.958         -11.18         -14.13          58.62         -110.2          107.9           59.6
